<mxfile host="app.diagrams.net" modified="2025-02-18T07:10:05.701Z" agent="Mozilla/5.0 (Macintosh; Intel Mac OS X 10.15; rv:134.0) Gecko/20100101 Firefox/134.0" version="24.6.3" etag="N52-VY_CeSPkZT0hKAlq" type="github">
  <diagram name="Page-1" id="gNEuKwRXePyEczUe3xI7">
    <mxGraphModel>
      <root>
        <mxCell id="0" />
        <mxCell id="1" parent="0" />
      </root>
    </mxGraphModel>
  </diagram>
</mxfile>
